<svg width="335" height="97" viewBox="0 0 335 97" fill="none" xmlns="http://www.w3.org/2000/svg">
<mask id="mask0_1_79" style="mask-type:luminance" maskUnits="userSpaceOnUse" x="270" y="61" width="46" height="13">
<path d="M270.333 61.3167H315.667V73.0443H270.333V61.3167Z" fill="white"/>
</mask>
<g mask="url(#mask0_1_79)">
<mask id="mask1_1_79" style="mask-type:luminance" maskUnits="userSpaceOnUse" x="238" y="-14" width="105" height="98">
<path d="M274.443 -13.529L342.74 13.7284L306.792 83.4159L238.495 56.1538L274.443 -13.529Z" fill="white"/>
</mask>
<g mask="url(#mask1_1_79)">
<mask id="mask2_1_79" style="mask-type:luminance" maskUnits="userSpaceOnUse" x="238" y="-14" width="105" height="98">
<path d="M274.443 -13.529L342.74 13.7284L306.792 83.4159L238.495 56.1538L274.443 -13.529Z" fill="white"/>
</mask>
<g mask="url(#mask2_1_79)">
<path d="M271.062 68.761C277.245 64.5097 285.042 62.1092 292.885 62.036C300.729 61.9672 308.578 64.2303 314.854 68.3762C301.443 74.3866 284.536 74.6797 271.062 68.761Z" fill="white"/>
</g>
</g>
</g>
<mask id="mask3_1_79" style="mask-type:luminance" maskUnits="userSpaceOnUse" x="257" y="0" width="22" height="62">
<path d="M257 0.333344H278.333V61.3167H257V0.333344Z" fill="white"/>
</mask>
<g mask="url(#mask3_1_79)">
<mask id="mask4_1_79" style="mask-type:luminance" maskUnits="userSpaceOnUse" x="238" y="-14" width="105" height="98">
<path d="M274.443 -13.529L342.74 13.7284L306.792 83.4159L238.495 56.1538L274.443 -13.529Z" fill="white"/>
</mask>
<g mask="url(#mask4_1_79)">
<mask id="mask5_1_79" style="mask-type:luminance" maskUnits="userSpaceOnUse" x="238" y="-14" width="105" height="98">
<path d="M274.443 -13.529L342.74 13.7284L306.792 83.4159L238.495 56.1538L274.443 -13.529Z" fill="white"/>
</mask>
<g mask="url(#mask5_1_79)">
<path d="M262.177 60.2997C270.708 52.7684 276.318 42.7175 277.875 32.1765C279.438 21.6308 276.943 10.6545 270.891 1.45113C257.969 18.3966 254.359 41.0912 262.177 60.2997Z" fill="white"/>
</g>
</g>
</g>
<mask id="mask6_1_79" style="mask-type:luminance" maskUnits="userSpaceOnUse" x="269" y="9" width="66" height="55">
<path d="M269 9.71539H334.333V63.6622H269V9.71539Z" fill="white"/>
</mask>
<g mask="url(#mask6_1_79)">
<mask id="mask7_1_79" style="mask-type:luminance" maskUnits="userSpaceOnUse" x="238" y="-14" width="105" height="98">
<path d="M274.443 -13.529L342.74 13.7284L306.792 83.4159L238.495 56.1538L274.443 -13.529Z" fill="white"/>
</mask>
<g mask="url(#mask7_1_79)">
<mask id="mask8_1_79" style="mask-type:luminance" maskUnits="userSpaceOnUse" x="238" y="-14" width="105" height="98">
<path d="M274.443 -13.529L342.74 13.7284L306.792 83.4159L238.495 56.1538L274.443 -13.529Z" fill="white"/>
</mask>
<g mask="url(#mask8_1_79)">
<path d="M270.125 63.1492C272.589 49.5204 280.281 36.6613 291.656 27.1556C303.036 17.6498 318.031 11.5524 333.635 10.0956C323.313 34.9801 299.016 55.6728 270.125 63.1492Z" fill="white"/>
</g>
</g>
</g>
<path d="M0.882095 87.0499C2.53314 89.5924 4.80397 91.718 7.6946 93.4268C10.5956 95.1401 13.7258 95.9922 17.0904 95.9922C19.5592 95.9922 21.7831 95.4241 23.7571 94.288C25.7415 93.1427 26.7363 91.3744 26.7363 88.9923C26.7363 87.4897 26.1217 86.207 24.9029 85.1442C23.6946 84.0813 22.1425 83.1102 20.2571 82.2306C18.3821 81.3419 16.3665 80.444 14.2154 79.5369C12.0592 78.6344 10.0383 77.6403 8.15293 76.55C6.2623 75.4506 4.71543 74.1633 3.5071 72.6836C2.29876 71.2085 1.6946 69.431 1.6946 67.3512C1.6946 65.1798 2.29876 63.3657 3.5071 61.9089C4.71543 60.4567 6.3196 59.3801 8.3196 58.6838C10.33 57.9875 12.455 57.6393 14.6946 57.6393C16.929 57.6393 19.1113 57.873 21.2363 58.3357C23.3613 58.8029 25.455 59.3206 27.5279 59.8932L27.4238 66.8198C26.0748 64.4285 24.1165 62.454 21.5488 60.9011C18.9758 59.3389 16.1581 58.5555 13.0904 58.5555C10.7988 58.5555 8.79876 59.119 7.09043 60.2414C5.3821 61.3546 4.52793 62.9992 4.52793 65.1706C4.52793 66.687 5.1321 68.0017 6.34043 69.1104C7.54876 70.2236 9.09043 71.236 10.9654 72.1522C12.8508 73.0593 14.8613 73.9663 16.9863 74.8825C19.1113 75.7896 21.1165 76.7974 23.0071 77.906C24.8925 79.0192 26.4446 80.3432 27.6529 81.8824C28.8613 83.4125 29.4654 85.2633 29.4654 87.4347C29.4654 89.6107 28.7258 91.4111 27.2571 92.8404C25.7831 94.2697 23.9706 95.3233 21.8196 95.9922C19.6633 96.661 17.4967 97 15.3196 97C12.955 97 10.6529 96.7526 8.40293 96.267C6.16335 95.7814 3.89251 95.3508 1.59043 94.9843L0.882095 87.0499Z" fill="#FDF5F0"/>
<path d="M29.5655 58.409H40.9821C38.9092 59.1328 37.878 60.5071 37.878 62.5319V83.0735C37.878 85.1991 38.2165 87.2285 38.8988 89.1572C39.5759 91.0767 40.7374 92.6342 42.378 93.8299C44.029 95.0164 46.2426 95.6073 49.0238 95.6073C53.3832 95.6073 56.5238 94.485 58.4405 92.2357C60.3571 89.9772 61.3155 87.059 61.3155 83.4766V62.5319C61.3155 60.5666 60.2842 59.1923 58.2321 58.409H65.2113C63.0863 59.1328 62.0238 60.5071 62.0238 62.5319V83.5499C62.0238 87.595 60.9301 90.8384 58.753 93.2802C56.5707 95.7127 53.0342 96.9267 48.1488 96.9267C43.1905 96.9267 39.3624 95.7631 36.6696 93.4268C33.9874 91.095 32.6488 87.7462 32.6488 83.385V62.5319C32.6488 60.5666 31.6176 59.1923 29.5655 58.409Z" fill="#FDF5F0"/>
<path d="M76.1964 95.9189H83.6131C86.3891 95.9189 88.7901 95.5066 90.8214 94.6728C92.8631 93.8436 94.4099 92.2357 95.4672 89.8535L94.3214 96.5419H67.8631C69.4047 95.9693 70.3058 95.2546 70.5714 94.3979C70.8318 93.5459 70.9672 92.4693 70.9672 91.1729V62.5319C70.9672 60.617 69.9308 59.2427 67.8631 58.409H79.2797C77.2224 59.1923 76.1964 60.5666 76.1964 62.5319V95.9189Z" fill="#FDF5F0"/>
<path d="M95.7501 58.409H107.167C105.094 59.1328 104.063 60.5071 104.063 62.5319V83.0735C104.063 85.1991 104.401 87.2285 105.083 89.1572C105.761 91.0767 106.922 92.6342 108.563 93.8299C110.214 95.0164 112.427 95.6073 115.208 95.6073C119.568 95.6073 122.708 94.485 124.625 92.2357C126.542 89.9772 127.5 87.059 127.5 83.4766V62.5319C127.5 60.5666 126.469 59.1923 124.417 58.409H131.396C129.271 59.1328 128.208 60.5071 128.208 62.5319V83.5499C128.208 87.595 127.115 90.8384 124.938 93.2802C122.755 95.7127 119.219 96.9267 114.333 96.9267C109.375 96.9267 105.547 95.7631 102.854 93.4268C100.172 91.095 98.8334 87.7462 98.8334 83.385V62.5319C98.8334 60.5666 97.8022 59.1923 95.7501 58.409Z" fill="#FDF5F0"/>
<path d="M145.55 87.0499C147.201 89.5924 149.472 91.718 152.363 93.4268C155.264 95.1401 158.394 95.9922 161.759 95.9922C164.227 95.9922 166.451 95.4241 168.425 94.288C170.41 93.1427 171.404 91.3744 171.404 88.9923C171.404 87.4897 170.79 86.207 169.571 85.1442C168.363 84.0813 166.811 83.1102 164.925 82.2306C163.05 81.3419 161.035 80.444 158.884 79.5369C156.727 78.6344 154.706 77.6403 152.821 76.55C150.93 75.4506 149.384 74.1633 148.175 72.6836C146.967 71.2085 146.363 69.431 146.363 67.3512C146.363 65.1798 146.967 63.3657 148.175 61.9089C149.384 60.4567 150.988 59.3801 152.988 58.6838C154.998 57.9875 157.123 57.6393 159.363 57.6393C161.597 57.6393 163.779 57.873 165.904 58.3357C168.029 58.8029 170.123 59.3206 172.196 59.8932L172.092 66.8198C170.743 64.4285 168.785 62.454 166.217 60.9011C163.644 59.3389 160.826 58.5555 157.759 58.5555C155.467 58.5555 153.467 59.119 151.759 60.2414C150.05 61.3546 149.196 62.9992 149.196 65.1706C149.196 66.687 149.8 68.0017 151.009 69.1104C152.217 70.2236 153.759 71.236 155.634 72.1522C157.519 73.0593 159.529 73.9663 161.654 74.8825C163.779 75.7896 165.785 76.7974 167.675 77.906C169.561 79.0192 171.113 80.3432 172.321 81.8824C173.529 83.4125 174.134 85.2633 174.134 87.4347C174.134 89.6107 173.394 91.4111 171.925 92.8404C170.451 94.2697 168.639 95.3233 166.488 95.9922C164.331 96.661 162.165 97 159.988 97C157.623 97 155.321 96.7526 153.071 96.267C150.831 95.7814 148.561 95.3508 146.259 94.9843L145.55 87.0499Z" fill="#FDF5F0"/>
<path d="M174.754 58.409H186.171C185.046 58.8258 184.244 59.3435 183.775 59.9665C183.301 60.5895 183.067 61.4462 183.067 62.5319V78.7123L200.338 62.5319C200.739 62.1654 201.098 61.7623 201.421 61.3225C201.754 60.8827 201.921 60.4338 201.921 59.9665C201.921 59.1877 201.51 58.6655 200.692 58.409H208.817C207.468 58.7754 206.14 59.3389 204.838 60.0948C203.546 60.8415 202.39 61.6524 201.379 62.5319L190.15 72.8852L206.171 92.877C207.463 94.54 209.051 95.7631 210.942 96.5419H199.004C199.947 96.1754 200.421 95.5799 200.421 94.7461C200.421 94.3338 200.317 93.9353 200.109 93.555C199.9 93.1656 199.65 92.7854 199.359 92.4189L186.525 76.3851L183.067 79.6469V92.4189C183.067 93.5092 183.301 94.3613 183.775 94.9843C184.244 95.6074 185.046 96.1296 186.171 96.5419H174.754C175.822 96.1296 176.609 95.6074 177.109 94.9843C177.609 94.3613 177.859 93.5092 177.859 92.4189V62.5319C177.859 61.4462 177.609 60.5895 177.109 59.9665C176.609 59.3435 175.822 58.8258 174.754 58.409Z" fill="#FDF5F0"/>
<path d="M209.346 96.5419C211.414 95.7127 212.45 94.3384 212.45 92.4189V62.5319C212.45 61.4462 212.2 60.5895 211.7 59.9665C211.2 59.3435 210.414 58.8258 209.346 58.409H220.762C219.648 58.8258 218.856 59.3435 218.387 59.9665C217.914 60.5895 217.679 61.4462 217.679 62.5319V92.4189C217.679 94.3888 218.705 95.7631 220.762 96.5419H209.346Z" fill="#FDF5F0"/>
<path d="M225.19 96.5419C227.258 95.7127 228.294 94.3384 228.294 92.4189V60.7361L226.253 58.409H233.065L256.773 87.6729V62.5319C256.773 61.4462 256.523 60.5895 256.023 59.9665C255.523 59.3435 254.742 58.8258 253.69 58.409H260.669C259.544 58.8258 258.732 59.3435 258.232 59.9665C257.732 60.5895 257.482 61.4462 257.482 62.5319V96.5419L229.003 61.2859V92.4189C229.003 94.3384 230.065 95.7127 232.19 96.5419H225.19Z" fill="#FDF5F0"/>
</svg>
